<?xml version="1.0" encoding="utf-8"?>
<!-- Generator: Adobe Illustrator 27.4.0, SVG Export Plug-In . SVG Version: 6.00 Build 0)  -->
<svg version="1.1" id="Layer_1" viewBox="0 0 47.42 19.35">

<g>
	<path className="st1" d="M46.25,8.35h-1.06C44.54,3.96,40.77,0.6,36.2,0.6c-3.84,0-7.13,2.38-8.46,5.76c-1.18-0.76-2.56-1.2-4.02-1.2
		c-1.48,0-2.86,0.44-4.04,1.21c-1.32-3.38-4.61-5.77-8.45-5.77c-4.57,0-8.34,3.36-8.99,7.75H1.18c-0.25,0-0.46,0.21-0.46,0.46v1.66
		c0,0.25,0.21,0.46,0.46,0.46h1.06c0.6,4.42,4.4,7.83,8.99,7.83c5.01,0,9.08-4.07,9.08-9.08c0-0.39-0.02-0.77-0.07-1.14
		c0.97-0.78,2.17-1.24,3.48-1.24c1.3,0,2.5,0.45,3.47,1.23c-0.05,0.37-0.07,0.76-0.07,1.15c0,5.01,4.07,9.08,9.08,9.08
		c4.59,0,8.39-3.41,8.99-7.83h1.06c0.25,0,0.46-0.21,0.46-0.46V8.81C46.71,8.56,46.5,8.35,46.25,8.35z M11.23,16.47
		c-3.76,0-6.8-3.04-6.8-6.79c0-3.76,3.04-6.8,6.8-6.8c3.75,0,6.8,3.04,6.8,6.8C18.03,13.43,14.98,16.47,11.23,16.47z M36.2,16.47
		c-3.75,0-6.8-3.04-6.8-6.79c0-3.76,3.05-6.8,6.8-6.8c3.76,0,6.8,3.04,6.8,6.8C43,13.43,39.96,16.47,36.2,16.47z"/>
</g>
</svg>
