<?xml version="1.0" encoding="utf-8"?>
<!-- Generator: Adobe Illustrator 27.4.0, SVG Export Plug-In . SVG Version: 6.00 Build 0)  -->
<svg version="1.1" id="Layer_1" xmlns="http://www.w3.org/2000/svg" xmlns:xlink="http://www.w3.org/1999/xlink" x="0px" y="0px"
	 viewBox="0 0 200 200" style="enable-background:new 0 0 200 200;" xml:space="preserve">
<style type="text/css">
	.st0{stroke:#FFFFFF;stroke-width:15;stroke-miterlimit:10;}
	.st1{display:none;}
	.st2{display:inline;stroke:#FFFFFF;stroke-width:15;stroke-miterlimit:10;}
	.st3{stroke:#FFFFFF;stroke-width:35;stroke-miterlimit:10;}
	.st4{stroke:#000000;stroke-width:4;stroke-miterlimit:10;}
</style>
<g>
	<g>
		<g>
			<path d="M157.45,83.65h13.73v64.98l36.63-34.66h18.25l-32.67,30.34l34.5,51.26l-2.94,28.08l-42.04-69.6l-11.73,10.9v30.63h-13.73
				V83.65z"/>
		</g>
		<path d="M150.07,163.95c-0.11,21.38-11.75,32.08-34.92,32.08c-23.33,0-35.05-10.69-35.16-32.08v-50.59h14.68v47.92
			c-0.11,7.57,1.35,13.33,4.36,17.3c2.91,4.17,8.28,6.25,16.11,6.25c7.88,0,13.28-2.08,16.19-6.25c2.86-3.96,4.23-9.73,4.13-17.3
			v-47.92h14.6V163.95z M115.03,87.46h14.13l-13.88,19.52h-8.73L115.03,87.46z"/>
		<path d="M0,83.31h13.89v40.61c3.13-3.91,6.88-6.9,11.23-8.95c4.36-2.06,9.08-3.09,14.18-3.09c10.62,0,19.24,3.49,25.85,10.48
			c6.61,6.98,9.92,17.28,9.92,30.9c0,12.9-3.27,23.62-9.8,32.15c-6.53,8.53-15.59,12.8-27.17,12.8c-6.48,0-11.95-1.5-16.41-4.5
			c-2.66-1.78-5.5-4.62-8.52-8.53v10.44H0V83.31z M54.62,177.25c3.85-5.89,5.77-13.66,5.77-23.31c0-8.58-1.92-15.7-5.77-21.33
			c-3.85-5.64-9.52-8.46-17-8.46c-6.53,0-12.25,2.31-17.16,6.93c-4.91,4.62-7.37,12.24-7.37,22.86c0,7.67,1.01,13.89,3.03,18.67
			c3.77,8.99,10.8,13.49,21.1,13.49C44.97,186.09,50.77,183.15,54.62,177.25z"/>
	</g>
	<polygon points="36.74,106.99 21.48,105.15 32.08,25.11 47.33,26.95 	"/>
	<rect x="53.18" y="5.93" width="19.9" height="101.06"/>
	<rect x="79.99" y="9.35" width="14.6" height="97.65"/>
</g>
</svg>
